/* XPM */
static char * GameEngine_xpm[] = {
"48 48 432 2",
"  	c None",
". 	c #111811",
"+ 	c #28271C",
"@ 	c #282318",
"# 	c #250501",
"$ 	c #741505",
"% 	c #641507",
"& 	c #270602",
"* 	c #9A1603",
"= 	c #891606",
"- 	c #05161F",
"; 	c #061822",
"> 	c #152020",
", 	c #1D241F",
"' 	c #0A181F",
") 	c #0B181E",
"! 	c #19201C",
"~ 	c #0C191E",
"{ 	c #06151E",
"] 	c #071822",
"^ 	c #081D2A",
"/ 	c #091E2B",
"( 	c #081E2B",
"_ 	c #081D29",
": 	c #081E2A",
"< 	c #111F2B",
"[ 	c #40282D",
"} 	c #472B31",
"| 	c #182B3B",
"1 	c #0D2D40",
"2 	c #0D2E41",
"3 	c #0D2B3D",
"4 	c #0D2B3E",
"5 	c #0D2C41",
"6 	c #163544",
"7 	c #364943",
"8 	c #2A4345",
"9 	c #1D404F",
"0 	c #435950",
"a 	c #364E4C",
"b 	c #11384E",
"c 	c #113A52",
"d 	c #0F3348",
"e 	c #05121A",
"f 	c #061E2B",
"g 	c #124564",
"h 	c #15435E",
"i 	c #39585A",
"j 	c #4E6459",
"k 	c #1F4556",
"l 	c #254855",
"m 	c #4C6256",
"n 	c #2A4E59",
"o 	c #113B54",
"p 	c #134360",
"q 	c #144462",
"r 	c #134461",
"s 	c #13435F",
"t 	c #13425E",
"u 	c #134563",
"v 	c #144562",
"w 	c #144765",
"x 	c #144664",
"y 	c #144561",
"z 	c #134562",
"A 	c #0E2F42",
"B 	c #163039",
"C 	c #465A4F",
"D 	c #2A3E3E",
"E 	c #172D35",
"F 	c #485B4F",
"G 	c #3B4E47",
"H 	c #0A212E",
"I 	c #0D2D41",
"J 	c #12405B",
"K 	c #0E3247",
"L 	c #252E34",
"M 	c #041E2D",
"N 	c #104360",
"O 	c #0B212D",
"P 	c #2D3D37",
"Q 	c #47584A",
"R 	c #132023",
"S 	c #1B2828",
"T 	c #4D5F4F",
"U 	c #273530",
"V 	c #041016",
"W 	c #0C2A3C",
"X 	c #134460",
"Y 	c #144563",
"Z 	c #13435E",
"` 	c #144663",
" .	c #144766",
"..	c #134561",
"+.	c #144968",
"@.	c #14435F",
"#.	c #081A25",
"$.	c #0E120F",
"%.	c #455445",
"&.	c #222922",
"*.	c #101411",
"=.	c #4B5C4C",
"-.	c #3E4C3E",
";.	c #020202",
">.	c #071C28",
",.	c #0E2E41",
"'.	c #03121B",
").	c #0E4D72",
"!.	c #155072",
"~.	c #061218",
"{.	c #252D25",
"].	c #4B5B4B",
"^.	c #121613",
"/.	c #191F19",
"(.	c #516351",
"_.	c #262E26",
":.	c #000305",
"<.	c #0A2333",
"[.	c #154664",
"}.	c #0D100D",
"|.	c #465547",
"1.	c #232B24",
"2.	c #121B1A",
"3.	c #526453",
"4.	c #465647",
"5.	c #04090B",
"6.	c #0A2433",
"7.	c #164C6D",
"8.	c #174C6C",
"9.	c #103043",
"0.	c #0D3B57",
"a.	c #195B83",
"b.	c #174D6E",
"c.	c #0A202D",
"d.	c #233331",
"e.	c #566A57",
"f.	c #1B2B2C",
"g.	c #213130",
"h.	c #5D725E",
"i.	c #30413C",
"j.	c #05141C",
"k.	c #0C2C3F",
"l.	c #154A69",
"m.	c #154C6D",
"n.	c #154867",
"o.	c #144867",
"p.	c #144866",
"q.	c #144868",
"r.	c #154764",
"s.	c #164D6D",
"t.	c #164C6C",
"u.	c #0F374E",
"v.	c #193642",
"w.	c #556D60",
"x.	c #33555A",
"y.	c #20495B",
"z.	c #587265",
"A.	c #4D6A64",
"B.	c #134059",
"C.	c #174D6D",
"D.	c #15425C",
"E.	c #07161F",
"F.	c #04121A",
"G.	c #144460",
"H.	c #195375",
"I.	c #174B6A",
"J.	c #2E5765",
"K.	c #5B786B",
"L.	c #275366",
"M.	c #2C5765",
"N.	c #607A69",
"O.	c #396069",
"P.	c #175072",
"Q.	c #175173",
"R.	c #175376",
"S.	c #174F71",
"T.	c #165072",
"U.	c #174F70",
"V.	c #1D4E66",
"W.	c #546C57",
"X.	c #566A4E",
"Y.	c #1D4A5E",
"Z.	c #164E6E",
"`.	c #175174",
" +	c #175375",
".+	c #175274",
"++	c #185071",
"@+	c #175071",
"#+	c #225771",
"$+	c #59776C",
"%+	c #40666B",
"&+	c #25576D",
"*+	c #5A7568",
"=+	c #4F706B",
"-+	c #185171",
";+	c #164C6A",
">+	c #16435E",
",+	c #0D2534",
"'+	c #09202E",
")+	c #18587F",
"!+	c #19577A",
"~+	c #305E6E",
"{+	c #5C796B",
"]+	c #305D6D",
"^+	c #305F70",
"/+	c #637E6C",
"(+	c #3B666E",
"_+	c #165274",
":+	c #314740",
"<+	c #8D8840",
"[+	c #938D3C",
"}+	c #2F4136",
"|+	c #154B6A",
"1+	c #154968",
"2+	c #144764",
"3+	c #154967",
"4+	c #22546B",
"5+	c #4D6A61",
"6+	c #446462",
"7+	c #2A596B",
"8+	c #50685E",
"9+	c #466868",
"0+	c #15445F",
"a+	c #133B54",
"b+	c #0D2736",
"c+	c #0A2B3F",
"d+	c #113D58",
"e+	c #193947",
"f+	c #2F3D36",
"g+	c #2F4848",
"h+	c #1D3740",
"i+	c #3F5145",
"j+	c #38524F",
"k+	c #112E3C",
"l+	c #0C2B3E",
"m+	c #12425E",
"n+	c #13405C",
"o+	c #23322C",
"p+	c #86813A",
"q+	c #918C3D",
"r+	c #283E3B",
"s+	c #0D2F44",
"t+	c #0F3349",
"u+	c #0B293A",
"v+	c #0C2D41",
"w+	c #0D3146",
"x+	c #081B25",
"y+	c #1B2A2B",
"z+	c #2B3D39",
"A+	c #182626",
"B+	c #32423C",
"C+	c #374A44",
"D+	c #131A18",
"E+	c #183644",
"F+	c #103349",
"G+	c #10374F",
"H+	c #0D2C3F",
"I+	c #151F1F",
"J+	c #1E3336",
"K+	c #2F4441",
"L+	c #4F6253",
"M+	c #1D3135",
"N+	c #092332",
"O+	c #113D57",
"P+	c #103B54",
"Q+	c #113D56",
"R+	c #13415D",
"S+	c #123F5A",
"T+	c #162729",
"U+	c #817C35",
"V+	c #928D3F",
"W+	c #273E3E",
"X+	c #12405C",
"Y+	c #0D3044",
"Z+	c #0F3246",
"`+	c #304A4B",
" @	c #465E55",
".@	c #132E3B",
"+@	c #324B4B",
"@@	c #455D55",
"#@	c #103245",
"$@	c #154460",
"%@	c #0D2838",
"&@	c #214655",
"*@	c #4D665C",
"=@	c #244855",
"-@	c #305258",
";@	c #51695B",
">@	c #244C5D",
",@	c #123D57",
"'@	c #113E58",
")@	c #13415C",
"!@	c #123E59",
"~@	c #152629",
"{@	c #7E7A33",
"]@	c #928D40",
"^@	c #273F3E",
"/@	c #12415C",
"(@	c #12425F",
"_@	c #14425D",
":@	c #33555B",
"<@	c #456059",
"[@	c #183F53",
"}@	c #36565B",
"|@	c #46615B",
"1@	c #174763",
"2@	c #133F59",
"3@	c #12354A",
"4@	c #07131A",
"5@	c #061721",
"6@	c #134766",
"7@	c #244F61",
"8@	c #274E5C",
"9@	c #285161",
"0@	c #4D665B",
"a@	c #13425D",
"b@	c #123E58",
"c@	c #16272A",
"d@	c #7F7B35",
"e@	c #979242",
"f@	c #2B423E",
"g@	c #123F5B",
"h@	c #13425F",
"i@	c #14435E",
"j@	c #30535A",
"k@	c #415B55",
"l@	c #1A475E",
"m@	c #36575C",
"n@	c #46615C",
"o@	c #16445E",
"p@	c #103044",
"q@	c #0A1923",
"r@	c #19333D",
"s@	c #415750",
"t@	c #264D5B",
"u@	c #234C5E",
"v@	c #495F55",
"w@	c #224959",
"x@	c #123F59",
"y@	c #12415D",
"z@	c #0C2B3D",
"A@	c #0D1718",
"B@	c #686F3F",
"C@	c #708053",
"D@	c #1C302F",
"E@	c #103951",
"F@	c #103850",
"G@	c #10374E",
"H@	c #113950",
"I@	c #29464B",
"J@	c #374F4A",
"K@	c #163C4F",
"L@	c #2C484C",
"M@	c #384F4B",
"N@	c #0B181D",
"O@	c #09161C",
"P@	c #181E1A",
"Q@	c #0A171D",
"R@	c #05131B",
"S@	c #05131C",
"T@	c #06141D",
"U@	c #05141D",
"V@	c #184051",
"W@	c #134B68",
"X@	c #051721",
"Y@	c #0A3752",
"Z@	c #0C3F5E",
"`@	c #041119",
" #	c #0B3751",
".#	c #0D3E5C",
"+#	c #0C3147",
"@#	c #103F5B",
"##	c #092535",
"$#	c #103E59",
"%#	c #071721",
"&#	c #15435C",
"*#	c #144461",
"=#	c #0C2D40",
"-#	c #0F3A53",
";#	c #154A6A",
">#	c #184C68",
",#	c #185674",
"'#	c #093E5D",
")#	c #0B2433",
"!#	c #1D526B",
"~#	c #44745F",
"{#	c #276175",
"]#	c #1A577C",
"^#	c #165172",
"/#	c #0B2A3B",
"(#	c #19577C",
"_#	c #1E6692",
":#	c #1E6085",
"<#	c #5F8A56",
"[#	c #4D8A73",
"}#	c #0E537B",
"|#	c #0E2E40",
"1#	c #255868",
"2#	c #8AA636",
"3#	c #5A8658",
"4#	c #1B587B",
"5#	c #18567A",
"6#	c #0B2A3C",
"7#	c #19597F",
"8#	c #1D6590",
"9#	c #397A83",
"0#	c #A7C63C",
"a#	c #649D6F",
"b#	c #105176",
"c#	c #0E2A3A",
"d#	c #1F5369",
"e#	c #5B8653",
"f#	c #5B8654",
"g#	c #23607A",
"h#	c #19577D",
"i#	c #0F364D",
"j#	c #0F344B",
"k#	c #1C638C",
"l#	c #1D648D",
"m#	c #3D7B7C",
"n#	c #6F9E5C",
"o#	c #3B7F88",
"p#	c #114766",
"q#	c #1D444D",
"r#	c #12425D",
"s#	c #164F71",
"t#	c #113C55",
"u#	c #0E2F43",
"v#	c #19597E",
"w#	c #154C6B",
"x#	c #041017",
"y#	c #5E6569",
"                                                                                                ",
"                                                                                                ",
"                                                                                                ",
"                                                                                                ",
"                                                                                                ",
"                                                                                                ",
"                                                                                                ",
"                                                                                                ",
"                                                                                                ",
"                                                                                                ",
"                                                                                                ",
"                                              . .                                               ",
"                                              + @                                               ",
"                                            # $ % #                                             ",
"                                            & * = &                                             ",
"            - ; > , ' ) ! ~ { ] ^ / ( ^ _ : < [ } | 1 2 1 3 4 5 4 6 7 8 9 0 a b c d e           ",
"          f g h i j k l m n o o p q p r s s t u v w w x y z v t A B C D E F G H I J K L         ",
"        M N s O P Q R S T U V W X Y v v Z ` Y  .v v ..z x +.x @.#.$.%.&.*.=.-.;.>.t t ,.        ",
"      '.).!...~.{.].^./.(._.:.<.r  .x x v [.v w r r r x  .w ` r ; }.|.1.2.3.4.5.6.7.8.9.        ",
"        0.a.b.c.d.e.f.g.h.i.j.k.l.m.n.o.p.n.w q.r. .x l.s.7.t.t.u.v.w.x.y.z.A.B...C.D.E.        ",
"        F.G.H.I.J.K.L.M.N.O.s.P.Q.R.S.T.U.P.V.W.X.Y.Z.`. +.+++@+`.#+$+%+&+*+=+-+;+>+,+          ",
"          '+)+!+~+{+]+^+/+(+.+Q.@+P.P._+P.l.:+<+[+}+K  .l.|+1+2+3+4+5+6+7+8+9+0+a+b+            ",
"            c+d+e+f+g+h+i+j+k+l+t z m+z 2+n+o+p+q+r+s+t+u+v+w+x+y+z+A+B+C+D+E+n+F+              ",
"              G+H+I+4.J+K+L+M+N+O+m+P+Q+R+S+T+U+V+W+X+t Y+u.J Z+`+ @.@+@@@#@O+$@%@              ",
"              W x &@*@=@-@;@>@m+t t ,@'@)@!@~@{@]@^@/@(@P+O+J _@:@<@[@}@|@1@2@3@4@              ",
"              5@6@7@*@8@9@0@>@s a@R+n+t R+b@c@d@e@f@g@h@s m+J i@j@k@l@m@n@o@p@q@                ",
"                >.r@s@t@u@v@w@J x@x@S+y@/@z@A@B@C@D@k.E@F@u.G@H@I@J@K@L@M@                      ",
"                      N@O@P@Q@j.R@S@T@{ U@    V@W@X@                                            ",
"                                              Y@Z@`@                                            ",
"                                               #.#`@                                            ",
"                                              +#@#R@                                            ",
"                                              ##$#'+                                            ",
"                                  %#b@&#*#Y d+=#-#`.R.;#>#,#'#                                  ",
"                                  )#!#~#{#]#^#/#k.(#_#:#<#[#}#                                  ",
"                                  |#1#2#3#4#5#=#6#7#8#9#0#a#b#                                  ",
"                                  c#d#e#f#g#h#i#j#k#l#m#n#o#p#                                  ",
"                                    ] l+q#r#s#t#u#v#w#x@z@#.                                    ",
"                                              x#x#y#                                            ",
"                                                                                                ",
"                                                                                                ",
"                                                                                                ",
"                                                                                                ",
"                                                                                                ",
"                                                                                                ",
"                                                                                                ",
"                                                                                                ",
"                                                                                                ",
"                                                                                                "};
